<?xml version="1.0" encoding="UTF-8" standalone="no"?>
<svg
   id="Layer_1"
   version="1.1"
   viewBox="0 0 1024 1024"
   sodipodi:docname="ModoStanding.svg"
   inkscape:version="1.4 (e7c3feb1, 2024-10-09)"
   xmlns:inkscape="http://www.inkscape.org/namespaces/inkscape"
   xmlns:sodipodi="http://sodipodi.sourceforge.net/DTD/sodipodi-0.dtd"
   xmlns="http://www.w3.org/2000/svg"
   xmlns:svg="http://www.w3.org/2000/svg">
  <sodipodi:namedview
     id="namedview265"
     pagecolor="#505050"
     bordercolor="#eeeeee"
     borderopacity="1"
     inkscape:showpageshadow="0"
     inkscape:pageopacity="0"
     inkscape:pagecheckerboard="0"
     inkscape:deskcolor="#505050"
     inkscape:zoom="0.69674877"
     inkscape:cx="445.64126"
     inkscape:cy="426.26555"
     inkscape:window-width="2560"
     inkscape:window-height="1387"
     inkscape:window-x="1"
     inkscape:window-y="26"
     inkscape:window-maximized="0"
     inkscape:current-layer="Layer_1" />
  <!-- Generator: Adobe Illustrator 29.4.0, SVG Export Plug-In . SVG Version: 2.1.0 Build 152)  -->
  <defs
     id="defs1">
    <style
       id="style1">
      .st0 {
        fill: #f8f8ee;
      }

      .st1 {
        fill: #013e29;
      }

      .st2 {
        fill: #061724;
      }

      .st3 {
        fill: #78c02b;
      }

      .st4 {
        fill: #1e4a43;
      }

      .st5 {
        fill: #206c35;
      }

      .st6 {
        fill: #9ae72b;
      }

      .st7 {
        fill: #76bf2a;
      }

      .st8 {
        fill: #013a26;
      }

      .st9 {
        fill: #081b24;
      }

      .st10 {
        fill: #ef6d61;
      }

      .st11 {
        fill: #77bf2a;
      }

      .st12 {
        fill: #fc654b;
      }

      .st13 {
        fill: #0c1e15;
      }

      .st14 {
        fill: #013b26;
      }

      .st15 {
        fill: #fefefe;
      }

      .st16 {
        fill: #b3dc5a;
      }

      .st17 {
        fill: #0c2d1e;
      }

      .st18 {
        fill: #fcd940;
      }

      .st19 {
        fill: #94e22b;
      }

      .st20 {
        fill: #eff4ef;
      }

      .st21 {
        fill: #fafbef;
      }

      .st22 {
        fill: #4baa10;
      }

      .st23 {
        fill: #75bd2a;
      }

      .st24 {
        fill: #def06b;
      }

      .st25 {
        fill: #fdfdfd;
      }
    </style>
  </defs>
  <path
     class="st3"
     d="M 574.78191,47.782813 C 609.92824,36.33399 637.25067,15.57283 676.77835,36.094752 c 1.32515,0.69242 25.65199,22.574659 30.82128,32.626696 7.28104,14.164457 21.62239,49.160452 26.81671,80.986432 4.31898,26.46269 6.36011,51.71351 10.19199,56.92745 5.12152,13.01274 12.00379,21.11884 14.98836,35.76712 6.96003,34.31065 -0.21764,74.9244 -19.13982,104.56718 -12.44101,12.71729 -25.97294,32.26285 -42.02831,41.11692 -41.94724,23.13267 -90.63405,30.93686 -132.82449,43.82368 -20.54579,6.35117 -43.60987,12.50495 -63.53487,19.78731 -15.1855,5.5513 -30.25789,12.68556 -44.35701,20.27831 -0.0836,-0.23876 -133.10695,-95.86148 -150.29809,-110.58139 -32.15335,-25.82822 -57.43643,-49.8382 -60.18294,-92.58785 -2.81611,-25.14941 -3.26946,-43.31072 40.32917,-71.5043 9.38192,-6.06694 16.66994,-14.37985 19.79565,-26.48788 2.0295,-7.83151 2.69663,-19.16648 4.34411,-27.26065 6.6907,-28.6335 14.64103,-59.278519 32.29293,-83.171373 8.95079,-16.840495 15.05671,-25.688979 52.70643,-32.230299 8.35396,-1.45143 100.57914,44.835043 178.08246,19.630705 z M 301.41576,287.68581 c 2.10113,1.85044 1.72443,5.52907 3.16896,6.68708 9.06343,9.18464 21.08387,12.37803 31.03956,21.48893 3.86797,8.70294 57.14785,121.48718 194.11829,57.94741 18.90735,-2.4638 43.17843,-39.97963 44.27363,-40.4258 4.01182,-0.1387 9.88122,-4.05591 12.43119,-6.84813 l 10.83013,-22.31963 c 1.30128,-1.25352 -0.0137,15.99168 0.98914,15.21569 8.77464,-6.75707 9.30322,-19.2173 16.9079,-27.41891 1.00282,-1.08638 17.5879,-3.27348 23.46154,-2.53329 3.78443,-2.01758 3.4106,0.072 6.95627,-0.20254 0.1971,-5.7947 3.45792,-21.67748 -39.81241,2.61041 -31.14375,16.30982 -55.68288,23.55224 -59.78965,24.23273 l -60.32935,6.03463 c -45.21031,0.19102 -87.51513,5.98626 -130.44521,-9.60515 -3.69594,-1.28164 -22.08938,-16.24856 -30.06745,-21.01724 -19.3128,-11.54371 -37.33833,-29.11354 -23.73254,-3.84619 z"
     id="path25"
     style="fill:#5fb586;fill-opacity:1;stroke-width:1.19382"
     sodipodi:nodetypes="cccscccsccccsscccsccccccccccccccccsc" />
  <path
     class="st14"
     d="m 429.70608,274.0801 c 7.99635,5.12338 25.28773,9.08154 17.25578,-6.13736 -9.74878,-18.47435 -29.83348,-1.92525 -17.25578,6.13736 z"
     id="path260-3"
     sodipodi:nodetypes="ccc"
     style="fill:#292e50;fill-opacity:1;stroke-width:0.889473" />
  <path
     class="st4"
     d="m 677.26232,663.07504 c 0.64467,-36.42371 4.7395,-82.54133 -14.32595,-115.21643 -2.99651,-5.1454 -9.34768,-16.3674 -15.81822,-10.33856 -4.0829,6.41086 6.08852,27.74458 7.8912,36.16108 5.611,26.10904 4.72756,75.2948 0.41784,101.97687 -1.54003,9.56257 -15.4959,23.92434 -20.78457,34.13158 -3.46209,6.68544 -5.9572,12.84559 -7.90314,20.15182 l -73.19365,5.00215 h -65.76805 c -63.26099,-4.01126 -132.20462,-9.6342 -192.17065,-31.07536 -6.37505,-2.28022 -28.49669,-11.24588 -32.25726,-15.49591 -2.85325,-3.22334 -1.95788,-15.9973 -1.73105,-20.92782 1.98176,-44.61339 16.29576,-105.92845 30.70528,-148.36907 5.24091,-15.42427 16.42709,-45.24612 25.58375,-57.98427 1.08639,-1.51617 1.83851,-3.06814 4.02322,-3.18753 l 43.25242,13.45445 c 11.16229,20.27122 24.0079,40.45888 42.07053,55.22653 0.50141,2.61449 -1.20577,1.76687 -3.00845,1.82656 -3.37854,0.0955 -6.24373,-1.15801 -9.46706,-1.28934 -22.26491,-0.9073 -23.411,22.37236 -26.56269,39.19341 -5.95722,31.73198 -14.26627,70.73437 -17.04788,102.33503 -1.16996,13.21568 -0.027,26.91809 15.63608,30.88161 15.66304,3.96351 33.54966,6.19872 49.40372,7.91783 15.85404,1.71911 37.42245,5.00451 52.51244,3.751 22.45592,-1.87432 22.99724,-22.7687 25.5401,-40.31798 5.41998,-37.55787 7.55693,-75.71264 13.35894,-113.24662 0.20295,-8.81046 -3.84413,-18.17008 -12.95304,-20.58161 l -17.5851,-3.9277 73.39661,-49.57972 c 37.31909,-5.38417 74.39941,-12.41582 111.31261,-20.00858 16.37933,-3.36659 43.41956,-12.71428 58.9274,-12.83366 5.12153,-0.0477 13.19181,7.72408 17.23889,11.37719 56.30097,50.83325 71.37904,142.65063 59.44075,214.67434 -0.19102,1.02668 -0.75212,1.54003 -1.71911,1.86237 -1.14608,0.38202 -12.78591,1.25352 -15.31684,1.39677 -34.25095,1.86238 -71.37903,-4.32165 -103.111,-16.95236 z"
     id="path26"
     style="fill:#5fbcd3;fill-opacity:1;stroke-width:1.19382"
     sodipodi:nodetypes="cccccccccccccccccccccssccccccccccsccc" />
  <path
     class="st11"
     d="m 655.79059,797.60549 c 6.60623,16.14746 18.11176,20.53469 38.94157,10.62544 7.56888,3.78443 23.76173,14.0671 32.96615,12.27635 2.31602,15.67498 1.97246,146.94745 1.97246,146.94745 -0.35815,3.50986 -0.5611,5.99303 -1.19382,9.55064 -1.33709,0.34621 -4.3974,4.47348 -5.1137,5.4166 -9.8849,6.8645 -31.43805,12.68563 -42.92269,16.12392 -0.81793,7.27251 -4.52462,-0.8238 -3.79638,2.71001 -7.40173,1.9459 -16.22413,3.3785 -23.87657,4.7753 h -22.08584 l -2.81743,-1.9579 c -5.94032,-14.06805 9.83813,-6.19086 -11.35561,-3.908 l -5.86787,2.7114 c -12.27257,0.7402 -39.40263,5.0168 -51.37673,0.8981 -3.79638,-7.5211 6.39934,-30.25276 8.61985,-37.91715 4.9035,-8.68234 11.32767,-9.9392 11.75827,-15.38868 -12.12096,8.02242 -11.22331,14.16109 -16.8909,27.60266 -0.4059,0.99087 -2.9822,5.697 -3.3881,8.45474 -0.58498,3.93959 -9.87237,11.50507 -10.1947,15.54023 -39.42024,0.3343 -36.02332,-40.99039 -14.3792,-61.24966 1.94594,-1.82656 7.97857,-9.3641 10.73632,-11.35781 8.88253,-6.41642 6.89311,-50.32254 6.10519,-67.25103 -0.54917,-11.89054 10.73737,-41.11784 5.87848,-50.07157 -1.06251,-1.95788 -1.5281,-1.65942 -3.37854,-1.98176 -1.05057,-0.17907 -3.76056,-0.191 -4.77532,0 l -1.19382,-3.58148 c 3.91844,-6.54289 4.84397,-52.32701 29.42614,-61.08233 15.2601,-5.43513 51.85115,-1.05612 68.02556,6.77566 14.21757,12.26991 6.90938,28.91352 10.17723,45.33887 z"
     id="path27"
     style="fill:#5fb586;fill-opacity:1;stroke-width:1.19382"
     sodipodi:nodetypes="scccccccccccccccccccccscccsss" />
  <path
     class="st11"
     d="m 992.30122,775.4138 c -5.71313,30.52306 -18.83854,44.40094 -33.4982,54.98832 -10.07328,13.87966 -23.00319,29.21896 -36.02549,39.51687 -15.25714,10.5057 -37.13236,22.99386 -54.70552,28.00794 -6.76901,1.934 -73.40129,9.27463 -89.93583,7.57939 -13.47832,-1.38483 -26.81268,-8.64389 -40.17162,-10.62564 l -16.98293,-80.40409 c 8.52016,-11.96406 24.8141,2.72424 43.32235,-18.0372 3.09687,-3.4508 14.7381,-5.57675 14.7381,-5.57675 2.55826,-12.51195 12.30597,-25.53352 17.59845,-36.51268 19.92226,9.17883 15.25996,10.49293 38.52387,12.64037 -0.6566,3.72474 14.4989,1.54218 16.77911,1.73318 29.70247,2.47123 42.92045,-6.47808 64.31387,-26.40308 6.80454,-6.33759 16.1079,3.14741 27.18048,-15.92029 4.38135,-5.27673 5.45168,-12.3287 9.58233,-17.7845 0.79987,-1.0625 7.78708,-29.47469 9.87629,-33.96348 5.46773,-11.81891 9.84127,-1.62817 15.03442,-13.29188 8.29133,-1.35013 31.0601,57.0314 20.98078,84.3629 0,0 -5.50022,23.79311 -6.61046,29.69062 z"
     id="path28"
     style="fill:#5fb586;fill-opacity:1;stroke-width:1.19382"
     sodipodi:nodetypes="ccccccccccccscccccc" />
  <path
     class="st7"
     d="m 264.47609,850.34106 c -0.59691,-11.28167 -0.12825,-20.02833 -0.65353,-31.34582 l 6.67011,-50.53488 c 3.60536,1.14607 13.25055,16.05944 15.61433,13.79116 2.37572,1.62361 4.48267,8.96945 5.98689,11.11834 4.47687,6.37505 9.3163,14.11381 13.43502,19.72481 4.71561,6.43474 12.06548,13.33538 18.76286,16.6781 2.50704,4.05902 17.34022,10.66735 22.27073,14.10557 4.34554,3.03233 8.35987,0.64223 10.83584,7.93591 2.27852,-8.07789 6.22979,2.06838 8.06828,3.0115 17.63286,9.0373 36.07752,14.45759 55.40561,19.18515 0.59691,3.08008 6.50846,9.02947 6.81886,12.12148 1.87431,18.91025 12.02259,43.20499 10.5303,61.44671 4.32853,-0.34284 -9.56911,17.15235 -8.16039,18.96697 -6.47171,9.85074 0.22586,1.49452 -14.52816,13.18843 -9.65808,1.48034 -20.3606,5.57655 -29.87542,7.4628 -5.0499,1.00282 -18.89122,4.27807 -24.0008,5.11375 -9.62227,-1.33717 -46.80052,7.16878 -53.19944,0.62651 -10.10974,3.12101 -53.88405,1.35964 -63.69733,-3.85735 -1.82656,-7.58086 -1.17883,-21.92497 1.7938,-28.57459 0.44172,-0.97895 4.96602,-5.27811 3.0559,-5.64819 6.22552,-2.64713 15.15188,-8.2257 9.25967,-16.03989 -4.94246,-1.51617 2.12648,-0.0703 -1.71765,3.24858 -0.0437,4.81081 -8.03142,4.53074 -10.07286,6.608 -5.00215,5.07378 -10.59676,18.72199 -11.6354,25.69395 -0.28651,1.95788 -5.931,7.57057 -6.36077,8.03616 -25.94191,-3.74863 -28.25529,-19.79029 -18.32262,-36.45615 0.74017,-1.24157 5.02844,-8.32922 5.43435,-9.03358 6.08853,-3.91576 11.99491,-5.43531 17.3194,-8.90936 0.83567,2.60255 4.38272,-12.56191 7.97582,-8.30058 9.29992,-4.59624 13.64199,-5.6932 22.08237,-9.97903 17.22724,-8.75963 2.03127,-21.64155 0.9223,-33.2487 -0.4059,-4.21421 2.63192,-15.34892 2.42896,-19.16918 z"
     id="path29"
     style="fill:#5fb586;fill-opacity:1;stroke-width:1.19382"
     sodipodi:nodetypes="ccccccccccccccccccccccccccsccccccc" />
  <path
     class="st4"
     d="m 305.77856,448.38877 -13.33508,20.67713 c -15.08999,27.68488 -25.15397,58.04396 -30.88435,89.09545 -64.62196,-8.2613 -117.5444,-49.74686 -149.38383,-105.39122 -1.49229,-2.60255 -10.73252,-18.56404 -9.34768,-19.90113 33.67792,-1.80269 60.50326,-19.49523 84.78574,-41.17516 l 19.6743,-22.09778 c 20.98752,26.52688 48.27845,49.54391 76.85871,67.60654 6.8287,4.32166 13.64546,9.40737 21.64412,11.19811 z"
     id="path30"
     style="fill:#5fbcd3;fill-opacity:1;stroke-width:1.19382"
     sodipodi:nodetypes="cccccccccc" />
  <path
     class="st7"
     d="m 147.69122,304.32396 c -9.77084,18.25314 -21.74025,59.58025 -7.70147,21.66491 3.54568,-9.58645 6.86776,-0.60227 17.52339,-21.89723 7.10329,-8.79851 7.9134,-15.23908 12.21118,-23.381 10.28875,-8.17034 21.49074,-19.03192 33.01353,-7.43138 0,134.3708 -0.0627,49.74379 -0.0627,57.72206 0.40582,29.34441 -15.60937,50.7531 -41.69772,70.67896 -20.31803,13.13768 -54.59254,15.60701 -59.97773,16.03123 -3.748616,0.29846 -12.352745,-5.68777 -15.229873,-7.9441 -1.289337,-1.01477 -2.002565,-0.82716 -2.993449,-2.00905 -4.20015,-4.57174 -20.347166,-29.34364 -26.82332,-35.67876 -2.899349,-2.89919 -0.03821,-9.30305 -4.862245,-9.08095 0,-6.07215 -10.769858,-5.59375 -14.967225,-10.76694 -8.213546,-10.13561 -18.888463,-24.18532 -17.145472,-37.59202 0,-4.18026 13.888272,-19.44523 15.236321,-17.30382 12.797846,2.41154 18.803253,9.57309 32.71036,14.35266 -1.419061,-2.6803 -0.88228,-6.59788 -2.10114,-9.81327 -0.477534,-1.2774 -1.838504,-0.47753 -2.507042,-0.69242 -0.799868,-2.85325 -1.169954,-2.73387 -2.387659,-4.77531 -1.301272,-2.17278 -3.724746,-4.11872 -4.775316,-5.96914 -0.167135,-0.29847 0.167134,-0.89538 0,-1.19384 -7.953959,-7.83649 -5.115913,-36.53343 -4.996529,-47.74349 0.08381,0.58678 16.506397,-1.95248 29.85661,6.40169 15.650204,9.79342 14.277664,21.26113 15.529718,-14.97903 0.393967,-11.413 22.069701,-22.6759 34.807851,-12.62387 9.72971,7.66438 23.74298,47.17892 24.98456,59.66637 0.45366,4.60818 -1.8932,14.67755 -1.34405,19.14248 0,0 -4.77251,3.40065 -6.3006,5.21526 z"
     id="path31"
     style="fill:#5fb586;fill-opacity:1;stroke-width:1.19382"
     sodipodi:nodetypes="cccccsscccccccccccccccsccccc" />
  <path
     class="st4"
     d="m 512.31097,486.57936 c 0.50141,2.24441 -0.75211,2.31603 -1.99369,3.37854 -9.9446,8.59557 -51.56147,34.69267 -63.39233,39.26503 -8.22548,3.17559 -14.20655,-3.1517 -20.59354,-8.61943 -25.97352,-22.21978 -45.01778,-50.86813 -36.61473,-49.36484 10.15948,1.80269 27.64907,13.01274 34.84786,12.98886 2.38766,0 5.26478,-0.97894 6.38699,-3.23528 3.46209,-10.63701 -76.64383,-32.114 -98.15662,-41.15128 -11.86666,-4.97827 -30.65753,-17.7403 -24.90328,-32.9258 1.30128,-3.43823 8.98954,-12.48746 12.6904,-12.29644 2.93683,0.1552 25.40469,18.83861 30.39489,22.26491 27.75652,19.06545 66.78279,35.42091 90.93396,57.10084 3.6173,3.24721 4.5246,8.07028 10.67282,9.65808 8.28518,2.13694 27.07605,-11.41301 36.39985,-15.00644 28.36538,-10.93547 61.61352,-16.14057 91.07721,-24.7242 21.77545,-6.35116 45.07899,-14.29012 66.55597,-21.78738 26.12098,-9.10891 94.74227,-31.93492 112.23187,-50.11693 8.50006,-8.83434 -4.7992,-7.60469 -5.39611,-10.20724 2.38766,-10.11173 19.88919,3.25915 23.67363,7.37786 23.0409,25.09429 9.49094,69.03913 -11.38913,91.00558 -1.45647,0.37009 -10.6012,-6.66156 -10.94741,-7.23459 -1.22965,-2.10114 5.10959,-10.43407 -4.51268,-16.34353 -15.61527,-9.58645 -57.63806,0.0239 -75.86782,3.7725 -46.20118,9.50288 -89.44167,21.15466 -136.60986,28.13855 -10.92353,1.61167 -51.1719,3.00777 -55.75621,12.82104 -1.76686,3.79638 1.96982,5.611 5.12153,5.75426 1.80268,0.0836 -2.10869,-0.5246 -1.7386,-0.5246 h 26.86116 z"
     id="path32"
     sodipodi:nodetypes="cccccccccccsccccccccccccccscc"
     style="fill:#5fbcd3;fill-opacity:1;stroke-width:1.19382" />
  <path
     class="st12"
     d="m 417.15596,530.9791 c 0.45709,0.0138 0.92802,-0.0277 1.38512,0 5.32458,10.79862 60.76518,3.55975 66.99821,4.32158 14.48833,1.75909 15.26399,3.80906 14.70995,17.84033 -1.12195,28.64425 -8.2276,67.70461 -12.46607,96.95831 l -126.04582,-15.2363 c 0.0694,-0.44325 -0.0691,-0.94189 0,-1.38513 h 8.31072 l -5.54049,-1.38512 17.39711,-99.6593 c 0.49865,-0.83108 1.09425,-1.73139 1.98071,-2.17463 5.1388,-2.52093 25.86018,0.44324 33.25671,0.70641 z"
     id="path33"
     sodipodi:nodetypes="ccccccccccccc"
     style="stroke-width:1.38512" />
  <path
     class="st23"
     d="m 284.66229,715.09629 c 0.0836,0.72824 0.57303,0.967 1.19382,1.19382 1.25585,5.74046 13.52437,5.41183 17.36311,10.48329 6.4231,8.48573 3.69969,12.98137 9.69675,22.07806 18.19855,27.60468 262.32717,46.04105 262.32717,46.04105 l -31.1684,86.24094 c -11.91441,-0.23876 -32.69633,0.31039 -44.61074,0 -33.81738,1.07038 -90.91689,-13.56943 -124.26492,-29.65223 -13.62432,-6.57062 -37.2762,-25.35438 -48.83964,-35.57182 -6.60187,-5.84976 -5.02529,-12.97729 -11.03026,-20.11638 -8.32098,-9.90879 -27.93303,-33.44498 -34.24839,-44.86992 -0.8118,-1.45647 -0.95505,-4.38136 -2.38765,-5.96915 l -1.19383,-1.19382 v -1.19384 l -1.19383,-1.19382 v -1.19384 c -3.04426,-10.30274 -9.27605,-19.98469 -10.73252,-31.03955 l 19.08933,5.96914 z"
     id="path34"
     style="fill:#5fb586;fill-opacity:1;stroke-width:1.19382"
     sodipodi:nodetypes="ccsscccsccccccccccc" />
  <path
     class="st0"
     d="m 488.00219,645.47796 c -2.09325,14.49073 -4.22324,30.80442 -7.55893,44.71445 -1.10971,17.35861 -2.82201,14.26628 -17.1782,11.85728 -22.85025,-0.47266 -69.88772,-6.19873 -92.37335,-10.93894 -10.34474,-2.1743 -14.88237,-5.94216 -14.36919,-16.78658 0.63472,-13.34282 9.06029,-34.0635 11.36962,-47.77096 z"
     id="path36"
     sodipodi:nodetypes="ccccccc"
     style="stroke-width:1.35049" />
  <path
     class="st17"
     d="m 500.38462,971.8828 c 0.39396,-4.3336 -2.57867,27.91173 0,0 z"
     id="path61"
     sodipodi:nodetypes="cc"
     style="stroke-width:1.19382" />
  <path
     class="st14"
     d="m 309.36004,274.0778 c 15.87792,26.89697 78.6017,39.14566 108.05347,41.77208 15.77432,1.41425 130.03666,10.10099 191.59761,-28.63996 4.66787,-2.93682 13.21569,-10.29081 17.81193,-11.42495 11.94987,-2.92771 24.24861,5.81274 21.41729,16.03313 -6.08853,4.38135 -18.61179,4.81113 -18.93412,4.94245 -14.49242,6.01671 -20.08244,12.61077 -31.03956,22.68276 -0.38051,0.29443 -7.78232,6.92612 -17.65351,15.62545 -16.14417,14.2276 -38.89347,33.98571 -48.335,40.59643 -1.96934,1.37888 -3.93026,2.69963 -5.88092,3.94215 -8.71141,5.54892 -18.64716,9.89415 -29.49802,12.93611 -10.04389,2.8092 -28.06248,7.66698 -43.03407,7.64128 -24.88195,-0.0427 -52.32275,-10.91147 -72.76862,-22.50994 -34.81496,-19.74973 -42.78777,-57.50178 -46.59668,-61.43816 -0.15981,-0.35327 -15.79343,-10.10761 -24.5226,-16.39456 -3.89598,-2.80595 -10.27527,-11.74872 -11.34972,-13.20519 -3.59343,-4.88275 -11.44882,-15.40039 -7.09134,-21.41729 6.32593,-8.73907 16.20656,8.85821 17.82386,8.85821 z m 157.58543,70.43592 c -1.40872,0.27457 -3.30691,-0.23877 -4.77532,0 -14.76766,-13.01275 -38.15477,-7.50919 -53.62679,1.88624 -8.90597,5.40805 -19.34003,11.35332 -8.45231,20.79651 45.75863,26.00484 134.55151,-7.12384 140.87182,-22.68275 -0.0597,-0.3104 2.04144,-0.16714 0.51335,-1.20577 -7.01972,-4.81114 -32.9855,-8.73883 -41.77208,-8.39262 -4.76338,0.19101 -9.84772,3.73636 -14.47977,4.93019 -5.65875,1.45647 -13.39102,7.20016 -17.5336,8.00003 z"
     id="path135"
     sodipodi:nodetypes="cccccccssscsscscccccsccccccc"
     style="fill:#292e50;fill-opacity:1;stroke-width:1.19382" />
  <path
     class="st6"
     d="m 716.45573,367.19647 c 0.53722,-0.42979 1.45647,-1.57586 2.38766,-2.38766 z"
     id="path190"
     style="stroke-width:1.19382" />
  <path
     class="st16"
     d="m 571.16473,753.92608 c -18.07083,63.78394 -64.41943,96.35787 -128.79617,89.82233 -27.28891,-3.50492 -60.16968,-13.85829 -86.41574,-29.98052 -38.46287,-23.62668 -53.49766,-72.86758 -58.83397,-97.2599 14.29014,5.12153 37.51423,16.45751 52.64005,19.7286 66.78279,14.42145 136.78892,17.25083 204.9685,17.15532 5.06183,0 12.21118,-2.22358 16.43733,0.53417 z"
     id="path195"
     style="fill:#5ff186;fill-opacity:1;stroke-width:1.19382"
     sodipodi:nodetypes="csscccc" />
  <path
     class="st7"
     d="m 707.4247,690.87875 c 29.18565,9.27375 57.38349,-2.3101 90.97303,3.84321 0.72823,3.08007 -11.08711,76.14398 -23.75364,91.50855 -8.84632,2.72872 -63.60663,26.21018 -74.13265,20.42393 -0.10745,-0.60885 6.82749,-21.26954 7.54379,-22.2843 6.66156,-9.40738 10.08302,-10.25742 10.96646,-22.52998 0.4059,-5.69457 3.62732,3.76056 -3.61923,3.02038 -9.76552,-0.99087 -5.46212,7.5379 -9.1033,14.89189 -1.69524,3.42629 -6.99122,7.89924 -7.60007,12.28059 -1.54004,1.64749 -7.13269,10.819 -9.09058,12.28741 -6.18404,2.20858 -20.313,-2.39234 -26.77162,-4.72031 0.29013,-18.13268 -10.73006,-41.43717 -12.01816,-52.59548 -9.04921,-1.74299 -7.02413,-15.49831 -5.72286,-24.92956 0.52529,-3.8322 2.33367,-14.55087 4.18411,-17.96521 14.51307,-26.93222 -0.62281,-12.77849 24.7914,-25.52279 10.08786,1.61166 33.35332,12.29167 33.35332,12.29167 z"
     id="path240"
     style="fill:#5fb586;fill-opacity:1;stroke-width:1.19382"
     sodipodi:nodetypes="cccccccccccccccc" />
  <path
     class="st10"
     d="m 462.17015,344.51372 c -5.56324,0.91924 -8.53588,4.22615 -11.91441,8.97758 -2.75774,3.87995 -5.40805,7.41368 -5.40805,12.48746 l 22.09778,-20.27122 c 9.75654,-5.03903 20.48619,-9.8008 31.06977,-10.48341 14.56586,-0.93945 39.4243,2.43726 45.06789,9.28959 0.0955,0.5611 -1.98894,1.91012 -2.12026,2.38766 -24.46156,26.7537 -75.19929,38.33384 -110.08298,31.88716 -10.92353,-2.01757 -20.79649,-7.03165 -30.78884,-11.59207 -10.88772,-9.44319 -0.45366,-15.38846 8.45231,-20.79651 15.47202,-9.39543 38.85913,-14.88704 53.62679,-1.88624 z"
     id="path250"
     sodipodi:nodetypes="ccccscccccc"
     style="fill:#ff8080;fill-opacity:1;stroke-width:1.19382" />
  <path
     class="st1"
     d="m 378.51855,146.85145 c 17.13623,-4.67053 26.53114,3.65235 30.95868,14.10337 4.21269,9.94394 3.86751,21.85506 3.74593,24.77963 -1.00282,16.45097 -15.13775,45.66396 -34.62104,45.36551 -24.35595,-0.40148 -31.63687,-40.71115 -17.17919,-69.11076 7.37451,-11.59074 15.44305,-14.75382 17.09562,-15.13775 z"
     id="path257"
     style="fill:#292e50;fill-opacity:1;stroke-width:1.19382"
     sodipodi:nodetypes="cscccc" />
  <path
     class="st14"
     d="m 379.72295,247.05459 c -478.652427,-338.28847 -478.652427,-338.28847 0,0 z"
     id="path259"
     sodipodi:nodetypes="cc"
     style="stroke-width:1.19382" />
  <path
     class="st14"
     d="m 505.83549,276.91122 c -8.18959,5.24717 -25.89876,9.30096 -17.67274,-6.28566 9.98434,-18.92075 30.55435,-1.97178 17.67274,6.28566 z"
     id="path260"
     sodipodi:nodetypes="ccc"
     style="fill:#292e50;fill-opacity:1;stroke-width:0.910965" />
  <path
     class="st12"
     d="m 462.17015,344.51372 c 1.46841,-0.23877 3.3666,0.27457 4.77532,0 v 1.19382 l -22.09778,20.27122 c 0,-5.06183 2.66224,-8.60751 5.40805,-12.48746 3.37853,-4.76337 6.33923,-8.05834 11.91441,-8.97758 z"
     id="path262"
     sodipodi:nodetypes="cccccc"
     style="fill:#fc414b;fill-opacity:1;stroke-width:1.19382" />
  <path
     class="st8"
     d="m 422.7738,13.823072 c 25.59569,7.747949 39.79032,18.564039 68.65711,20.283158 17.29764,1.025309 40.57823,2.387423 60.62615,-0.608884 19.63499,-2.934598 36.21276,-10.21585 36.92161,-10.469853 44.303,-15.7943577 70.63305,-18.1188926 110.7457,12.168549 6.5117,5.127762 14.9036,10.833612 24.97106,31.198986 7.23986,14.645448 16.00437,36.652752 22.47753,72.505522 2.56672,14.26625 3.5576,46.82197 9.8849,57.0292 0.967,1.57586 4.69175,7.28236 5.90945,9.78941 27.32708,44.28868 12.83208,89.12 1.27739,132.7299 10.64263,3.50072 28.63997,18.59986 29.86961,19.97276 3.23528,3.60536 13.45644,18.26701 14.80547,23.32884 5.42932,31.58886 -12.57123,65.40018 -29.20305,97.65379 -0.10744,0.21489 -0.99088,0.28652 -1.05057,0.78792 34.21514,49.87818 44.72084,111.56333 41.61688,171.70843 -0.94312,18.28947 -7.01971,31.99462 -9.45512,47.83674 -0.84762,5.49161 0.48947,12.14123 -0.0955,17.81192 0.13078,7.17009 -6.75102,19.30567 -1.57586,25.76284 2.12502,1.69523 17.19114,8.6075 19.20872,9.12085 35.26571,9.01341 78.92403,-3.9874 102.38277,-31.8633 18.50435,-21.97839 15.20938,-37.1042 25.05847,-59.70338 6.88839,-15.79437 22.13359,-16.25996 34.63291,-5.93334 14.66267,12.73956 23.20197,36.55035 23.36617,69.41695 0.1457,29.15552 -5.3863,65.25473 -32.71511,109.80024 -54.37891,72.16696 -151.01804,103.29051 -237.18862,81.00172 -3.71281,1.13414 -0.0597,10.73253 0.0477,13.69322 0.57304,15.92568 1.9937,43.50312 -4.64399,57.47092 -2.82938,5.93331 -17.53735,15.06612 -23.63781,17.05982 -27.80131,11.442 -53.38166,15.4862 -83.11438,15.3884 -34.23812,-0.5023 -52.77665,-2.8323 -80.1298,-5.8258 -29.02199,-1.4445 -53.16121,-9.5148 -49.66329,-43.44346 7.58974,-16.28383 20.35593,-40.50345 34.87175,-47.53827 1.66082,-0.8049 1.6425,-0.80644 4.10792,-2.19238 1.24097,-4.27164 0.003,-25.28169 -0.80381,-25.96379 -0.82305,-0.69507 -19.12235,0.88911 -23.21718,1.11594 -11.35332,0.64467 -26.77758,-0.27458 -38.23835,-1.25352 -12.73815,-1.08639 -28.11808,-3.63467 -40.61748,-6.20141 0.0666,0.91963 0.11199,2.1993 0.36366,3.72602 3.60942,21.89829 6.83314,42.0341 6.20583,63.37261 -0.0465,10.28861 -1.93921,14.58339 -5.5895,21.4231 -11.33594,16.34654 -41.76973,22.27033 -59.83234,24.77806 -48.26702,6.7012 -179.41185,11.9131 -191.2514,-30.68139 -2.85155,-8.92165 2.901,-23.42292 7.40173,-31.3977 12.33226,-21.87094 36.63862,-30.81273 58.25886,-40.23204 6.30102,-2.74399 -9.73056,-36.62393 0.012,-115.18062 1.27739,-10.29081 7.90314,-33.61823 7.13909,-41.68851 -2.74855,-11.15574 -4.4839,-22.17031 -7.70019,-32.9855 -1.31322,-3.85606 -7.31818,-6.63769 -8.87015,-10.46987 -5.96915,-14.6841 -1.13414,-51.87187 1.39677,-68.53773 2.53093,-16.66586 6.55413,-32.30501 10.39826,-48.20681 l -1.16996,-1.67137 c -27.22198,-4.7809 -62.87339,-22.60791 -89.54012,-41.56185 -27.93618,-19.85623 -46.27764,-40.77209 -46.72352,-41.23018 -8.36874,-8.67914 -17.79999,-22.51563 -23.601998,-32.77061 -6.267605,-11.0668 -12.009924,-30.04868 -18.68343,-39.5635 -3.676985,-5.2409 -11.962162,-11.2578 -15.639158,-15.9973 C 52.627183,397.23321 49.356089,381.84475 39.590569,371.35098 27.222495,358.07562 15.427467,350.59031 8.7897774,331.71587 3.3697932,316.32742 7.4646265,298.52742 23.223166,291.77035 c 3.402412,-1.45647 13.908113,-1.86238 13.955864,-4.54849 0,-0.32233 -4.261967,-16.057 -4.787252,-20.88007 -1.905939,-17.71814 1.961933,-23.50038 7.174911,-29.26075 30.934122,-20.0162 43.9097,4.51923 47.741221,0 -1.325153,-28.46088 25.08235,-48.72016 51.23915,-32.72285 14.24237,8.71496 22.61111,29.22493 26.96859,44.66114 0.74017,2.61449 1.56391,12.71428 3.59342,13.14406 13.4664,-9.479 30.56203,-15.67497 43.55089,-2.38766 l 4.14258,9.58645 c 5.07378,20.58161 -1.30127,41.89146 -3.02038,62.60439 -0.1552,1.89819 1.24157,7.40175 1.26546,7.7957 1.49287,20.27837 56.97842,64.38843 69.86286,72.81164 2.51898,0.41784 1.40873,-0.39397 1.88626,-1.62362 3.71281,-9.49093 7.40174,-18.68342 14.07524,-26.57463 0,0 -10.83996,-11.80696 -11.413,-12.20093 -75.01706,-51.31173 -71.98739,-118.56365 -49.70471,-158.94986 12.87011,-23.32641 34.58946,-29.8403 45.14428,-39.39289 1.6833,-1.51616 3.29496,-3.12783 4.46492,-5.09765 4.21421,-29.09361 8.70301,-58.34243 19.10126,-85.955692 C 333.172,17.23258 376.09887,8.3555249 389.22955,7.481141 c 9.75516,-0.9746755 33.54431,6.341931 33.54431,6.341931 z M 312.3088,141.52697 c -2.86519,14.43339 -2.02951,30.56202 -10.12367,43.00172 -2.60254,3.16365 -4.22615,5.33641 -7.78376,8.33292 -5.94527,5.02602 -13.39477,9.81328 -18.48048,14.34983 -17.83059,15.89949 -19.1676,19.65124 -21.8232,27.72071 -10.89965,33.10488 -1.14607,66.0665 18.25365,93.50069 1.03864,1.45646 26.34781,25.50018 35.03888,32.94967 17.19114,14.73186 35.34928,26.93279 54.48636,39.22923 32.45164,21.44201 70.45473,37.43175 94.31249,69.24208 0.76405,-0.0955 1.65942,0.14326 2.38766,0 4.11871,-0.79987 20.29509,-12.89335 26.61044,-15.77048 23.39905,-10.61314 53.20897,-15.67497 78.15999,-23.31548 148.89854,-45.6105 163.91664,-56.95433 179.34893,-97.02248 17.35828,-33.00937 21.73963,-74.90083 7.19879,-110.465 C 746.5641,215.11459 738.89971,206.13699 736.524,198.44873 724.62795,139.83423 728.68063,70.89437 668.29667,36.267057 621.96416,15.828704 588.63246,52.586699 543.91163,55.571275 509.48159,57.86342 465.82327,56.609899 434.68821,42.451094 414.21405,29.641302 382.66042,26.078723 361.66098,40.547927 334.9877,68.155862 320.95729,104.61587 312.3088,141.52697 Z m -178.44162,85.9915 c -6.35117,-8.2016 -15.69886,-13.97974 -23.14835,-3.45016 -13.773947,19.47563 15.30868,54.70011 3.81603,64.35145 -13.29906,11.16835 -23.25954,-27.48988 -43.868991,-38.87515 -5.682622,-3.13976 -11.042921,-4.30971 -16.080875,0.75212 -16.720534,16.77596 29.163024,61.1419 24.306687,70.16183 -12.482908,23.1852 -40.284588,-33.21348 -53.41224,-6.1726 -3.139764,10.87579 5.670687,21.11884 11.699525,29.03392 22.672398,29.84086 12.13558,2.76857 29.642773,37.80857 3.891882,5.99302 7.771828,12.02186 12.200929,17.6448 12.861354,12.35151 13.203876,20.98239 38.154782,13.20374 41.41782,-12.35212 78.469,-56.21342 80.46811,-66.06684 1.72493,-8.50213 -1.21958,-20.26432 -0.49351,-27.05182 1.21771,-11.48464 6.68545,-29.36819 4.25004,-40.07684 -0.51335,-2.25633 -0.96701,-3.48598 -3.06815,-4.69175 -5.62702,-2.71047 -13.98684,-0.15972 -14.33304,-0.0284 -7.07941,2.78163 -15.59625,21.61283 -19.76271,27.41484 -7.23461,10.07592 -15.79436,14.40952 -21.15465,27.79234 -2.79356,6.96002 -4.24222,16.65151 -12.27257,12.94111 -5.64547,-2.58609 3.80832,-29.06974 11.41301,-38.5368 2.73387,-3.41435 10.255,-7.65245 10.82803,-12.20093 2.10114,-16.80913 -8.71495,-50.42735 -19.1729,-63.94149 z m 378.44379,259.06089 c -6.28801,-1.33611 -37.23628,5.12882 -35.24183,-4.77531 4.57237,-9.82521 49.83043,-11.66371 60.75395,-13.27538 47.16819,-6.97196 90.40868,-18.63567 136.60986,-28.13855 18.21783,-3.74862 60.25255,-13.35894 75.86783,-3.7725 9.62227,5.90945 3.2711,14.24238 4.51267,16.34352 0.33428,0.57304 9.49095,7.60469 10.94742,7.23461 20.86813,-21.96646 34.41809,-65.9113 11.38913,-91.00559 -3.78445,-4.11871 -21.27403,-17.4896 -23.67363,-7.37786 0.60885,2.60254 13.89616,1.3729 5.39611,10.20723 -17.50154,18.19395 -86.11089,41.01997 -112.23187,50.11695 -21.48892,7.48531 -44.78052,15.43621 -66.55597,21.78738 -29.45175,8.58363 -62.71184,13.78872 -91.07721,24.72419 -9.3238,3.59343 -28.11468,17.14339 -36.39984,15.00643 -6.16016,-1.58779 -7.06748,-6.41085 -10.67284,-9.65808 -24.15116,-21.66799 -63.17743,-38.03539 -90.93396,-57.10084 -4.9902,-3.42628 -27.45806,-22.10971 -30.39488,-22.26491 -3.70087,-0.191 -11.37719,8.84628 -12.69041,12.29644 -5.75425,15.18551 13.03662,27.94754 24.90328,32.92581 21.5128,9.02534 46.97718,10.23111 69.11076,18.03876 7.65244,2.69804 32.5199,12.47551 29.04587,23.11253 -1.12221,2.25633 -3.99933,3.22333 -6.38699,3.23527 -7.19879,0.0239 -24.68839,-11.18618 -34.84787,-12.98886 -2.60255,-0.46559 -1.77881,1.37291 -1.51616,2.72193 2.39959,12.65458 27.88784,37.88019 38.13089,46.6429 6.37505,5.4558 12.35614,11.79503 20.59355,8.61945 11.81891,-4.57237 53.44773,-30.68141 63.39233,-39.26504 1.24157,-1.07445 2.49509,-1.13414 1.99369,-3.37853 z M 305.77856,448.38877 c -7.99866,-1.79074 -14.81542,-6.87645 -21.64413,-11.19812 -28.58026,-18.06263 -55.8712,-41.07965 -76.85871,-67.60653 l -19.6743,22.09778 c -24.28248,21.67993 -51.10782,39.37248 -84.78574,41.17515 -1.38484,1.33709 7.86733,17.2986 9.34769,19.90114 31.83941,55.6563 84.7738,97.12993 149.38382,105.39123 5.73038,-31.03956 15.79435,-61.39864 30.88436,-89.09547 l 13.33506,-20.67711 z m 371.48376,214.68627 c 31.73198,12.63072 68.86007,18.82669 103.11102,16.95238 2.53091,-0.14327 14.17075,-1.01475 15.31682,-1.39679 0.96701,-0.32233 1.52811,-0.84762 1.71911,-1.86237 11.92636,-72.0237 -3.15171,-163.84109 -59.44074,-214.67432 -4.05902,-3.66506 -12.1293,-11.42496 -17.23889,-11.37719 -15.50784,0.13132 -42.54806,9.46705 -58.9274,12.83365 -36.91319,7.59276 -73.99352,14.62441 -111.31262,20.00858 l -73.3966,49.57972 17.5851,3.92769 c 9.09697,2.41154 13.156,11.77116 12.95304,20.58161 -5.80201,37.52205 -7.93896,75.68877 -13.35894,113.24662 -2.53093,17.5493 -3.00846,39.50381 -25.46438,41.37812 -12.93475,1.08471 -94.20812,-8.78495 -102.59766,-10.9116 -15.40039,-3.90382 -16.18833,-19.48329 -15.03031,-32.69898 2.78163,-31.60065 11.09067,-70.61498 17.04788,-102.33501 3.16365,-16.82106 4.29778,-40.10073 26.5627,-39.19341 3.23527,0.13132 6.08852,1.38484 9.46706,1.28934 1.80268,-0.0478 3.50985,0.78792 3.00845,-1.82656 -18.06263,-14.76767 -30.90823,-34.95532 -42.07054,-55.22653 L 321.943,457.91553 c -2.18471,0.11938 -2.92488,1.67137 -4.02321,3.18752 -9.14472,12.73816 -20.34284,42.56001 -25.58375,57.98428 -14.39758,42.44062 -28.72353,103.75567 -30.70529,148.36906 -0.21488,4.91859 -1.12219,17.69255 1.73106,20.92783 3.76056,4.26196 25.88221,13.21569 32.25726,15.4959 59.96603,21.44116 128.90965,27.07605 192.17066,31.07537 h 65.76803 l 73.19366,-4.99021 c 1.94594,-7.30623 4.44104,-13.47833 7.90315,-20.15183 5.3006,-10.20724 19.24452,-24.569 20.78456,-34.13158 4.29778,-26.69401 5.18122,-75.86782 -0.41784,-101.97686 -1.81462,-8.42843 -11.9741,-29.76216 -7.89121,-36.16108 6.47056,-6.02884 12.80978,5.20508 15.81824,10.33855 19.06544,32.66317 14.97061,78.78078 14.32594,115.21644 z M 382.85024,555.68897 c -4.96342,21.73414 -10.51419,45.56623 -14.1067,67.70865 -2.54286,14.8751 -5.13761,36.71467 -6.59988,50.80935 -0.17907,10.32662 -0.47215,12.39467 17.21058,16.35002 18.21225,3.17992 54.65343,7.88888 75.26727,9.53359 22.22118,1.77298 21.60536,-0.1004 24.28363,-17.65967 3.24074,-21.24692 8.17633,-59.68201 12.96748,-113.07144 1.10233,-16.94598 1.30938,-17.38683 -40.94765,-23.35779 -0.93119,2.63836 -1.03931,11.08523 -3.84482,12.04029 -2.80549,0.95507 -16.96644,-1.13023 -19.71946,-2.53788 -1.8719,-1.42584 -1.22863,-8.33193 -0.62825,-12.29314 -39.23481,-8.2997 -39.21825,-7.94473 -43.8822,12.47802 z m 589.13265,113.52236 c -5.84976,28.00722 -15.54365,52.31359 -35.86262,72.84744 0,0 -0.89537,1.02669 -1.19383,1.19383 -3.68894,2.07727 -5.3006,4.07096 -8.35681,5.96915 -32.71091,20.33091 -65.39795,28.21017 -103.87505,18.51628 -3.9874,-1.00281 -19.45942,-7.61662 -21.15466,-6.9839 l -1.59972,1.21771 c -4.91859,13.83647 -11.84279,24.58094 -21.95452,35.0747 -8.95711,9.29996 -19.11224,12.33321 -21.81126,12.78591 -9.28798,1.55197 -18.51628,-1.93401 -25.09429,8.17772 l 9.99236,74.60238 c 56.10996,19.12514 122.17645,12.28449 172.37696,-19.23259 2.91295,-1.67136 6.70933,-5.03795 9.55064,-7.16297 2.54285,-1.91013 3.47404,-2.53091 5.96914,-4.77532 1.22696,-1.08673 16.83774,-15.05538 29.84572,-31.03955 5.19317,-6.38699 14.38565,-19.38778 15.31684,-21.03527 13.03658,-23.10059 23.08864,-62.28206 20.49802,-88.797 -1.1765,-26.95308 -2.00243,-30.95316 -8.00393,-45.60552 -2.52425,-6.16282 -5.58813,-8.60602 -8.94303,-9.00434 -5.10322,-0.6059 -5.69996,3.25134 -5.69996,3.25134 z M 753.46443,791.00577 c 2.81744,2.79356 8.54781,-2.22053 10.7564,-4.16647 22.33654,-19.66237 28.61608,-60.73008 29.84573,-88.9522 -39.92165,2.99651 -80.41632,-1.85044 -118.02194,-15.4004 -6.69738,15.85405 -23.30355,28.6519 -28.42507,45.05511 -1.93938,16.1026 5.90501,25.90437 13.01589,22.75568 6.09556,-2.69913 10.21982,-13.46924 19.03686,-4.41502 14.13807,14.51843 -28.25904,46.1086 -4.45498,54.40006 18.33302,3.13979 22.73437,-46.11613 42.19188,-41.27555 14.05891,3.49754 -18.98089,37.73725 -11.63824,43.8535 14.57665,6.04078 29.97969,-8.1603 34.76431,-20.58161 6.50107,-16.87737 3.52131,-24.49512 13.00865,-24.05385 10.94898,0.50925 2.21474,11.36712 -1.07036,30.20207 -0.25072,2.01757 -0.11939,1.51616 0.96699,2.60255 z M 273.81975,725.64362 c 4.26315,26.11697 59.39925,93.71801 72.28632,101.45022 l 2.65033,2.10251 c 48.18294,36.51923 110.89478,48.75735 170.07287,47.40833 6.14798,-0.23656 11.78059,0.41479 25.93205,-3.5525 0.19468,-14.50309 -1.53909,-37.62324 -1.08905,-50.33789 0.31984,-9.03597 0.29456,-8.93869 5.47661,-9.41543 4.73235,-0.43538 4.84113,-0.28855 5.27338,9.00647 1.46955,31.60069 2.95598,63.4909 2.55085,95.11417 -0.0926,7.23042 -3.55876,12.21273 -6.89636,16.02981 -5.62107,6.42858 -14.52022,10.76711 -22.23406,22.28103 -6.04077,8.75077 -12.0338,18.9222 -4.77532,28.6519 7.45466,8.86616 20.78844,8.99236 25.88611,6.94573 14.59631,-5.8601 15.08831,-42.61679 33.37557,-45.06469 10.64015,-1.02836 -1.81462,13.29926 -3.12784,14.86318 -6.97196,8.30905 -11.54433,18.63567 -9.51482,29.7621 2.47123,13.51424 32.64373,12.39434 42.6122,10.57974 3.12703,-0.6295 4.51516,-6.38949 5.08127,-9.26645 0.60885,-13.60968 3.1019,-25.52099 13.35689,-35.22683 3.89188,-3.68893 15.69886,-8.83433 13.88424,0.0955 -1.08639,5.34836 -8.8681,12.1859 -11.18412,21.28288 -0.87151,3.45017 -1.96538,12.61471 -0.39397,17.85975 0.0873,3.168 5.51721,6.07365 7.15795,6.34705 12.95274,2.1581 44.20296,-7.04154 53.83477,-10.16736 10.21918,-3.31883 23.00508,-7.66439 29.59502,-16.3674 4.42911,-5.84976 4.88277,-16.73749 4.82307,-24.52125 -0.16714,-24.19892 -2.72193,-49.79461 -4.835,-73.95771 -1.16996,-13.37088 -2.1489,-41.05578 -6.05272,-52.44491 -2.23246,-6.5183 -7.30623,-3.58148 -13.12018,-4.78725 -4.87082,-1.00282 -7.10328,-4.28585 -10.67283,-5.44385 -0.29846,-0.0955 -0.77599,0.0239 -1.19383,0 -4.81112,-0.32234 -7.36593,1.85042 -12.54715,2.37571 -31.93492,3.19946 -36.97288,-27.13573 -27.36255,-51.28689 l -0.68048,-1.2297 c -9.00039,-2.98329 -16.80512,-14.18915 -18.68343,-15.57947 -4.09484,-2.87713 -32.17369,1.934 -39.24116,2.43541 -94.61094,6.74513 -192.23034,2.0892 -283.78509,-23.00509 -5.87364,-1.61167 -31.06514,-10.01282 -34.3584,-10.41019 -3.15838,0.17129 -3.10339,0.16915 -2.10114,7.47337 z m 0.91925,185.93887 c -0.34622,0.4059 -0.78792,0.8715 -1.19382,1.19383 -15.48397,4.644 -32.09013,10.1356 -45.25806,19.80562 -28.07777,20.60312 -23.92192,43.23281 -2.63869,45.14929 0.89464,0.0806 6.88493,0.27348 9.94897,-6.16463 3.79445,-7.97283 8.09969,-22.02994 13.41658,-27.12226 3.40241,-3.25916 9.04723,-11.83852 13.8703,-8.47192 5.28866,3.68893 -3.96352,12.10543 -6.04078,14.99449 -13.84013,19.24604 -15.40908,33.15429 5.50355,35.68354 3.79638,0.45367 19.73399,1.03864 21.95452,-1.0625 0.19101,-0.17907 1.14608,-2.0892 1.19383,-2.38766 2.25633,-6.06465 2.75775,-12.2845 4.76337,-18.51628 7.24659,-22.62847 24.0263,-26.51534 24.22866,-21.61002 0.24408,5.91688 -29.15914,32.31963 -7.36432,44.44156 23.87812,2.84808 47.95591,-0.45459 71.70584,-4.69728 16.42708,-3.02039 47.94418,-8.55976 48.76791,-30.13224 0.4656,-12.22481 -3.49791,-31.23058 -4.79918,-44.11199 -0.54917,-5.44386 -0.85708,-23.67825 -3.11554,-27.0673 -2.51898,-1.18651 -14.31437,-4.93925 -18.38532,-6.34797 -51.08482,-19.69713 -84.7982,-39.02025 -113.66228,-84.26821 -4.92996,-7.61852 -8.70753,-13.45389 -14.06549,-17.81611 -3.74862,25.85833 -6.02884,53.23283 -4.83501,79.44932 0.26264,5.69456 0.81181,13.23956 1.39678,18.89832 1.36097,13.28731 6.62575,27.1596 4.62011,40.14846 z"
     id="path2"
     sodipodi:nodetypes="ccsccsccccccccccccccccsccccccccscscccsccsccsccccsccsccccccccccccccccccccccscccccccccccccccccccccccccccsccscccccsccccccccccccccccccccccccccccccccccccccccccccccccccccsccccccccccsccccccccccccccccccccccscccssccsccscccccccccccccccccssccccccsscscssccccccccsssssccscccccccccscccccccccccccccccccsscccccccsccccccsccccc"
     style="fill:#292e50;fill-opacity:1;stroke-width:1.19382" />
  <path
     class="st1"
     d="m 597.3453,152.34534 c 17.13623,-4.67052 26.53114,3.65236 30.95867,14.10338 4.21269,9.94393 3.86751,21.85506 3.74594,24.77963 -1.00282,16.45096 -15.13776,45.66396 -34.62104,45.3655 -24.35595,-0.40147 -31.63688,-40.71114 -17.1792,-69.11075 7.37451,-11.59075 15.44306,-14.75382 17.09563,-15.13776 z"
     id="path257-1"
     style="fill:#292e50;fill-opacity:1;stroke-width:1.19382"
     sodipodi:nodetypes="cscccc" />
  <path
     class="st0"
     d="m 614.47486,191.67639 c -13.19799,-0.20654 -13.08461,-26.5307 0.51847,-26.92176 14.90406,-0.42847 13.68347,27.144 -0.51847,26.92176 z"
     id="path265-2"
     style="fill:#ffffff;stroke-width:1.19382"
     sodipodi:nodetypes="sss" />
  <path
     class="st0"
     d="m 398.5511,186.12953 c -13.19798,-0.20654 -13.08461,-26.5307 0.51847,-26.92176 14.90406,-0.42847 13.68348,27.144 -0.51847,26.92176 z"
     id="path265-2-3"
     style="fill:#ffffff;stroke-width:1.19382"
     sodipodi:nodetypes="sss" />
  <text
     xml:space="preserve"
     style="font-size:18.6667px;font-variation-settings:normal;text-align:start;writing-mode:lr-tb;direction:ltr;text-anchor:start;white-space:pre;inline-size:58.2298;opacity:1;vector-effect:none;fill:#000000;fill-opacity:1;stroke:#000000;stroke-width:1;stroke-linecap:butt;stroke-linejoin:miter;stroke-miterlimit:4;stroke-dasharray:none;stroke-dashoffset:0;stroke-opacity:1;-inkscape-stroke:none;paint-order:stroke fill markers"
     x="411.02081"
     y="631.75421"
     id="text265"
     transform="matrix(2.027488,0.28732926,-0.28732926,2.027488,-277.13917,-728.47347)"><tspan
       x="411.02081"
       y="631.75421"
       id="tspan3"><tspan
         style="font-size:16px;font-family:'Apple SD Gothic Neo';-inkscape-font-specification:'Apple SD Gothic Neo'"
         id="tspan1">MODO</tspan></tspan></text>
  <text
     xml:space="preserve"
     style="font-size:9.17962px;font-variation-settings:normal;text-align:start;writing-mode:lr-tb;direction:ltr;text-anchor:start;white-space:pre;inline-size:58.2298;vector-effect:none;fill:#ffffff;fill-opacity:1;stroke:#000000;stroke-width:1;stroke-linecap:butt;stroke-linejoin:miter;stroke-miterlimit:4;stroke-dasharray:none;stroke-dashoffset:0;stroke-opacity:1;-inkscape-stroke:none;paint-order:stroke fill markers"
     x="411.02081"
     y="631.75421"
     id="text265-4"
     transform="matrix(1.8867787,0.29198108,-0.29198108,1.8867787,-214.51694,-712.56192)"><tspan
       x="411.02081"
       y="631.75421"
       id="tspan5"><tspan
         style="font-family:'Noto Sans Mandaic';-inkscape-font-specification:'Noto Sans Mandaic';stroke:#ffffff"
         id="tspan4">ORGANIZER</tspan></tspan></text>
  <text
     xml:space="preserve"
     style="font-size:10.6667px;font-variation-settings:normal;text-align:start;writing-mode:lr-tb;direction:ltr;text-anchor:start;opacity:1;vector-effect:none;fill:#000000;fill-opacity:1;stroke:#000000;stroke-width:1;stroke-linecap:butt;stroke-linejoin:miter;stroke-miterlimit:4;stroke-dasharray:none;stroke-dashoffset:0;stroke-opacity:1;-inkscape-stroke:none;paint-order:stroke fill markers"
     x="1043.2825"
     y="410.00595"
     id="text266"><tspan
       sodipodi:role="line"
       id="tspan266"></tspan></text>
  <text
     xml:space="preserve"
     style="font-size:12px;font-variation-settings:normal;text-align:start;writing-mode:lr-tb;direction:ltr;text-anchor:start;opacity:1;vector-effect:none;fill:#ffffff;fill-opacity:1;stroke:#ffffff;stroke-width:1;stroke-linecap:butt;stroke-linejoin:miter;stroke-miterlimit:4;stroke-dasharray:none;stroke-dashoffset:0;stroke-opacity:1;-inkscape-stroke:none;paint-order:stroke fill markers"
     x="331.00165"
     y="540.00812"
     id="text268"><tspan
       sodipodi:role="line"
       id="tspan268"></tspan></text>
</svg>
